<svg width="52" height="52" viewBox="0 0 52 52" fill="none" xmlns="http://www.w3.org/2000/svg">
<circle cx="26" cy="26" r="26" fill="#FFE7D6"/>
<path fill-rule="evenodd" clip-rule="evenodd" d="M20 18H32C34.2091 18 36 19.7909 36 22V31C36 33.2091 34.2091 35 32 35H20C17.7909 35 16 33.2091 16 31V22C16 19.7909 17.7909 18 20 18ZM27.4 27.55L33.74 22.85C34.0229 22.642 34.0854 22.2448 33.88 21.96C33.7821 21.824 33.6333 21.7335 33.4675 21.709C33.3017 21.6845 33.1331 21.7281 33 21.83L26.59 26.5C26.4296 26.6681 26.2074 26.7633 25.975 26.7633C25.7426 26.7633 25.5204 26.6681 25.36 26.5L19 21.83C18.8676 21.7313 18.7013 21.6896 18.538 21.714C18.3746 21.7384 18.2278 21.8269 18.13 21.96C17.9224 22.2422 17.9804 22.6389 18.26 22.85L24.56 27.5C24.952 27.8719 25.4697 28.0825 26.01 28.09C26.5245 28.0899 27.0204 27.8973 27.4 27.55Z" fill="#F37A22"/>
</svg>
