<svg width="52" height="52" viewBox="0 0 52 52" fill="none" xmlns="http://www.w3.org/2000/svg">
<circle cx="26" cy="26" r="26" fill="#FFE7D6"/>
<path d="M26.5 14C23.9813 14.0028 21.5666 14.9971 19.7856 16.7647C18.0047 18.5323 17.0029 20.9289 17 23.4287C17 31.4966 25.6364 37.5899 26.0045 37.8449C26.1497 37.9458 26.3227 38 26.5 38C26.6773 38 26.8503 37.9458 26.9955 37.8449C27.3636 37.5899 36 31.4966 36 23.4287C35.9971 20.9289 34.9953 18.5323 33.2144 16.7647C31.4334 14.9971 29.0187 14.0028 26.5 14ZM26.5 20.0001C27.1832 20.0001 27.8511 20.2011 28.4192 20.5779C28.9873 20.9546 29.4301 21.4901 29.6916 22.1166C29.9531 22.7431 30.0215 23.4325 29.8882 24.0976C29.7549 24.7626 29.4259 25.3736 28.9427 25.8531C28.4596 26.3326 27.8441 26.6591 27.1739 26.7914C26.5038 26.9237 25.8092 26.8558 25.178 26.5963C24.5468 26.3368 24.0072 25.8973 23.6277 25.3335C23.2481 24.7697 23.0455 24.1068 23.0455 23.4287C23.0455 22.5193 23.4094 21.6473 24.0573 21.0043C24.7051 20.3613 25.5838 20.0001 26.5 20.0001Z" fill="#F37A22"/>
</svg>
